<?xml version='1.0' encoding='utf-8'?>
<!DOCTYPE svg PUBLIC '-//W3C//DTD SVG 1.1//EN' 'http://www.w3.org/Graphics/SVG/1.1/DTD/svg11.dtd'>
<svg version="1.1" xmlns="http://www.w3.org/2000/svg" viewBox="0 0 512 512" xmlns:xlink="http://www.w3.org/1999/xlink" enable-background="new 0 0 512 512">
  <g>
    <g>
      <path d="m71.7,255.1h164.2l-.3-141.4c-79.3,8.5-144,65.9-163.9,141.4z"/>
      <path d="m446.4,295.9h-380.8c-2.1,51.8 16.1,96.6 43.4,129.8-0.4,0.4-22,16.8-19.8,56.1 0.6,10.8 9.7,19.1 20.4,19.2 12,0 21.1-10.4 20.4-21.7-0.7-10.7 1.5-20.6 8.5-25 32.4,25.5 73.2,40.9 117.5,40.9 44.3,0 85.1-15.4 117.5-40.9 6.9,4.4 9.2,14.3 8.5,25-0.7,11.3 7.9,20.9 19.1,21.6 11.2,0.8 21.1-8.3 21.6-19.1 1.8-40.2-19.4-55.8-19.8-56.1 27.4-33.1 46.2-78.3 43.5-129.8zm-134.9,110h-29.3v29.3c0,11.3-9.1,20.4-20.4,20.4s-20.4-9.1-20.4-20.4v-29.3h-29.3c-11.3,0-20.4-9.1-20.4-20.4 0-11.3 9.1-20.4 20.4-20.4h29.3v-29.3c0-11.3 9.1-20.4 20.4-20.4s20.4,9.1 20.4,20.4v29.2h29.3c11.3,0 20.4,9.1 20.4,20.4 0.1,11.3-9.1,20.5-20.4,20.5z"/>
      <path d="m276.7,113.7v141.4h163.6c-19.8-75.4-84.4-132.7-163.6-141.4z"/>
      <path d="M480.6,11H31.4C20.1,11,11,20.1,11,31.4c0,11.3,9.1,20.4,20.4,20.4h204.2v15.7l20.4,2.1l20.4-2.1V51.8h204.2    c11.3,0,20.4-9.1,20.4-20.4C501,20.1,491.9,11,480.6,11z"/>
    </g>
  </g>
</svg>
